<svg width="244" height="122" viewBox="0 0 244 122" fill="none" xmlns="http://www.w3.org/2000/svg">
<path d="M177.075 115.2V89.5999H183.475V115.2H177.075ZM202.675 115.2V89.5999H183.475V83.1999H202.675V63.9999H209.075C209.075 63.9999 209.075 93.7528 209.075 105C209.075 116.247 209.075 121.6 209.075 121.6H183.475V115.2H202.675Z" fill="#F3FFC7"/>
<path d="M141.26 105.2V92.4H147.66V105.2H141.26ZM141.26 79.6V73.2H166.86V79.6C166.86 79.6 166.916 75.1 161.917 75.1C156.919 75.1 141.26 79.6 141.26 79.6ZM147.66 105.2H166.86C166.86 105.2 166.86 101.299 166.86 98.8C166.86 96.3006 166.86 92.4 166.86 92.4H147.66V86H166.86V79.6H173.26V111.6H147.66V105.2Z" fill="#F3FFC7"/>
<path d="M105.445 105.2V79.6H111.845C111.845 79.6 111.845 87.4012 111.845 92.4C111.845 97.3987 111.845 105.2 111.845 105.2H105.445ZM111.845 105.2C111.845 105.2 126.419 109.6 131.417 109.6C136.416 109.6 137.445 105.2 137.445 105.2V111.6H111.845V105.2ZM111.845 79.6V73.2H137.445V79.6C137.445 79.6 136.416 75.1 131.417 75.1C126.419 75.1 111.845 79.6 111.845 79.6Z" fill="#F3FFC7"/>
<path d="M69.6299 105.2V79.6H76.0299V105.2H69.6299ZM95.2299 105.2V111.6H76.0299V105.2C76.0299 105.2 76.6684 109.6 80.4175 109.6C84.1665 109.6 95.2299 105.2 95.2299 105.2ZM95.2299 79.6H101.63V105.2H95.2299V79.6ZM95.2299 73.2V79.6C95.2299 79.6 94.1665 74.6 90.4175 74.6C86.6684 74.6 76.0299 79.6 76.0299 79.6V73.2H95.2299Z" fill="#F3FFC7"/>
<path d="M211.917 115.2V89.6H218.317V115.2H211.917ZM237.517 115.2V121.6H218.317V115.2C218.317 115.2 218.956 119.6 222.705 119.6C226.454 119.6 237.517 115.2 237.517 115.2ZM237.517 89.6H243.917V115.2H237.517V89.6ZM237.517 83.2V89.6C237.517 89.6 236.454 84.6 232.705 84.6C228.956 84.6 218.317 89.6 218.317 89.6V83.2H237.517Z" fill="#F3FFC7"/>
<path d="M33.8149 91V78.2H40.2149V91H33.8149ZM40.2149 103.8V91H46.6149V103.8H40.2149ZM46.6149 103.8H53.015V116.6H46.6149V103.8ZM53.015 103.8V91H59.4149V103.8H53.015ZM59.4149 91V78.2H65.8149V91H59.4149Z" fill="#F3FFC7"/>
<path d="M0 121.6V96H6.39999V76.8H12.8V96H19.2V76.8H25.6V96H32V121.6H25.6C25.6 121.6 31.8407 108.255 26.9175 102.6C21.7218 96.6316 10.7194 97.298 5.41748 102.6C0.115548 107.902 6.39999 121.6 6.39999 121.6H0ZM12.8 76.8V64H19.2V76.8H12.8Z" fill="#F3FFC7"/>
<path d="M179 70.7999V64.3999C179 64.3999 179.419 68.6331 181.798 69.3999C184.9 70.3999 191.8 64.3999 191.8 64.3999V70.7999H179ZM179 38.7999V25.9999H185.4V38.7999H179ZM185.4 51.5999V38.7999H191.8V51.5999H185.4ZM191.8 51.5999H198.2V64.3999H191.8V51.5999ZM198.2 51.5999V38.7999H204.6V51.5999H198.2ZM204.6 38.7999V25.9999H211V38.7999H204.6Z" fill="#F3FFC7"/>
<path d="M148 29.1999V22.7999H154.4V9.99988H160.8V22.7999H173.6V29.1999C173.6 29.1999 165.271 26.9644 160.8 29.1999C151.858 33.6709 160.8 54.7999 160.8 54.7999H154.4V29.1999H148ZM160.8 54.7999H173.6V61.1999H160.8V54.7999Z" fill="#F3FFC7"/>
<path d="M119 67.3999V60.9999C119 60.9999 119 63.3999 123.177 65.3999C127.355 67.3999 138.2 60.9999 138.2 60.9999V67.3999H119ZM119 41.7999V35.3999H125.4V41.7999H119ZM125.4 35.3999V28.9999H144.6V35.3999C144.6 35.3999 144.427 30.8999 140.677 30.8999C136.928 30.8999 125.4 35.3999 125.4 35.3999ZM125.4 41.7999H138.2V48.1999H125.4V41.7999ZM138.2 60.9999V48.1999H144.6V60.9999H138.2Z" fill="#F3FFC7"/>
<path d="M90 64.3999V25.9999H96.4V32.3999H102.8V38.7999C102.8 38.7999 100.542 38.1937 98.1176 38.7999C88.4186 41.2246 96.4 64.3999 96.4 64.3999H90ZM115.6 32.3999H102.8V25.9999H115.6V32.3999Z" fill="#F3FFC7"/>
<path d="M78 64.1999V25.7999H84.4C84.4 25.7999 80.37 26.2018 80.37 33.6998C80.37 41.1979 84.4 64.1999 84.4 64.1999H78ZM78 19.3999V12.9999H84.4V19.3999H78Z" fill="#F3FFC7"/>
<path d="M40.8149 70.6V13H47.2149V32.2H66.4149V38.6C66.4149 38.6 61.2159 31.6704 50.5 38.1C39.7841 44.5295 47.2149 70.6 47.2149 70.6H40.8149ZM66.4149 70.6V38.6H72.8149C72.8149 38.6 72.8149 40.2515 72.8149 46.4999C72.8149 52.7483 72.8149 70.6 72.8149 70.6H66.4149Z" fill="#F3FFC7"/>
<path d="M12 0V6.4H24.8V57.6H31.2V32C31.2 32 19.5 17.9 34 6.4C39.8747 1.74074 64 6.4 64 6.4C64 6.4 64 3.74956 64 2.49988C64 1.2502 64 0 64 0H12Z" fill="#F3FFC7"/>
</svg>
